<svg width="51" height="183" viewBox="0 0 51 183" fill="none" xmlns="http://www.w3.org/2000/svg">
<path d="M9.30208 47H37.6979C42.8268 47 47 42.8268 47 37.6979V9.30208C47 4.17321 42.8268 0 37.6979 0H9.30208C4.17321 0 0 4.17321 0 9.30208V37.6979C0 42.8268 4.17321 47 9.30208 47ZM2.9375 9.30208C2.9375 5.79275 5.79275 2.9375 9.30208 2.9375H37.6979C41.2073 2.9375 44.0625 5.79275 44.0625 9.30208V37.6979C44.0625 41.2073 41.2073 44.0625 37.6979 44.0625H9.30208C5.79275 44.0625 2.9375 41.2073 2.9375 37.6979V9.30208Z" fill="#DB5050"/>
<path d="M23.4999 35.5045C30.1191 35.5045 35.5045 30.1191 35.5045 23.4999C35.5045 16.8808 30.1191 11.4954 23.4999 11.4954C16.8808 11.4954 11.4954 16.8808 11.4954 23.4999C11.4954 30.1191 16.8808 35.5045 23.4999 35.5045ZM23.4999 14.4329C28.4996 14.4329 32.567 18.5003 32.567 23.4999C32.567 28.4996 28.4996 32.567 23.4999 32.567C18.5003 32.567 14.4329 28.4996 14.4329 23.4999C14.4329 18.5003 18.5003 14.4329 23.4999 14.4329V14.4329Z" fill="#DB5050"/>
<path d="M35.9511 14.4173C37.8821 14.4173 39.3371 12.9682 39.3371 11.047C39.3371 9.04367 37.8057 7.67676 35.9531 7.67676C34.0222 7.67676 32.5671 9.12592 32.5671 11.047C32.5671 13.0465 34.0907 14.4173 35.9511 14.4173ZM36.2978 10.7239C36.9166 11.2703 35.5046 11.9342 35.5046 11.049C35.5046 10.5203 36.2233 10.6573 36.2978 10.7239Z" fill="#DB5050"/>
<g clip-path="url(#clip0)">
<path d="M51 77.6868C49.1034 78.5188 47.0826 79.0702 44.9756 79.3379C47.1431 78.0438 48.7974 76.0102 49.5752 73.559C47.5543 74.7639 45.3231 75.6149 42.9452 76.0899C41.0263 74.0467 38.2914 72.7812 35.3079 72.7812C29.5194 72.7812 24.8593 77.4796 24.8593 83.2394C24.8593 84.0682 24.9294 84.8651 25.1016 85.6237C16.4093 85.1997 8.71781 81.0337 3.55087 74.6874C2.64881 76.2524 2.11969 78.0438 2.11969 79.9723C2.11969 83.5933 3.98438 86.8031 6.76387 88.6614C5.08406 88.6295 3.43612 88.1418 2.04 87.3736C2.04 87.4055 2.04 87.4469 2.04 87.4884C2.04 92.5692 5.66419 96.7895 10.4167 97.7617C9.56569 97.9944 8.63812 98.1059 7.6755 98.1059C7.00612 98.1059 6.33037 98.0677 5.69606 97.9274C7.05075 102.068 10.8949 105.112 15.4658 105.211C11.9085 107.994 7.39181 109.67 2.50219 109.67C1.64475 109.67 0.822375 109.632 0 109.527C4.63144 112.513 10.1203 114.219 16.0395 114.219C35.2792 114.219 45.798 98.2812 45.798 84.4666C45.798 84.0044 45.7821 83.5582 45.7597 83.1151C47.8348 81.6425 49.5784 79.8033 51 77.6868Z" fill="#DB5050"/>
</g>
<path d="M39.41 141.323H3.54604C2.31802 141.323 1.32251 142.319 1.32275 143.548V179.412C1.32349 180.64 2.31949 181.635 3.54801 181.635H22.8569V166.046H17.621V159.944H22.8569V155.453C22.8569 150.245 26.0361 147.411 30.6814 147.411C32.9065 147.411 34.8185 147.577 35.3758 147.651V153.094H32.1725C29.6451 153.094 29.1557 154.295 29.1557 156.057V159.944H35.1986L34.4113 166.046H29.1557V181.635H39.41C40.6388 181.635 41.635 180.64 41.6353 179.411C41.6353 179.411 41.6353 179.41 41.6353 179.41V143.546C41.6348 142.318 40.6385 141.323 39.41 141.323Z" fill="#DB5050"/>
<defs>
<clipPath id="clip0">
<rect width="51" height="51" fill="white" transform="translate(0 68)"/>
</clipPath>
</defs>
</svg>
